<svg id="Capa_1" enable-background="new 0 0 496.355 496.355" height="20" viewBox="0 0 496.355 496.355" width="20" xmlns="http://www.w3.org/2000/svg"><g><path d="m410.845 496.355s49.881-37.28 49.881-113.099c0-126.366-193.539-121.71-193.539-211.496h-38.02c0 89.786-193.539 85.13-193.539 211.496 0 75.819 49.881 113.099 49.881 113.099z" fill="#f6e266"/><path d="m165.41 383.255c0 75.82 19.42 113.1 19.42 113.1h-99.32s-49.88-37.28-49.88-113.1c0-126.36 193.54-121.71 193.54-211.5h11.6c0 89.79-75.36 85.13-75.36 211.5z" fill="#eab14d"/><g fill="#e27d47"><path d="m302.473 36.87h-35.285v-25.384c0-6.343-5.143-11.486-11.487-11.486h-15.047c-6.344 0-11.486 5.143-11.486 11.486v25.384h-35.285c-6.344 0-11.486 5.143-11.486 11.486v15.047c0 6.344 5.143 11.486 11.486 11.486h35.285v96.87h38.02v-96.869h35.285c6.344 0 11.486-5.143 11.486-11.486v-15.048c0-6.343-5.143-11.486-11.486-11.486z"/><path d="m294.07 144.678c-.755 0-1.522-.115-2.28-.356l-91.781-29.264c-3.946-1.258-6.126-5.478-4.867-9.424 1.258-3.946 5.478-6.126 9.424-4.867l91.781 29.264c3.946 1.258 6.126 5.478 4.867 9.424-1.017 3.188-3.967 5.223-7.144 5.223z"/></g></g></svg>
