<svg id="Wi-fi" enable-background="new 0 0 300 300" height="24" viewBox="0 0 300 300" width="24" xmlns="http://www.w3.org/2000/svg"><g><path d="m199.606 100.392c-32.501-32.502-75.671-50.391-121.594-50.391-.11 0-.22 0-.33 0l.024 12.5h.305c42.578 0 82.617 16.589 112.756 46.729 30.215 30.219 46.811 70.367 46.731 113.062l12.5.024c.087-46.039-17.809-89.344-50.392-121.924z"/><path d="m77.694 105.299v12.5c27.93 0 54.175 10.864 73.907 30.597 19.73 19.733 30.597 45.978 30.597 73.908h12.5c0-31.269-12.167-60.657-34.259-82.745-22.091-22.096-51.476-34.26-82.745-34.26z"/><path d="m77.728 160.597-.067 12.5c13.171.073 25.522 5.213 34.778 14.465 9.253 9.253 14.389 21.606 14.462 34.778l12.5-.073c-.092-16.486-6.528-31.946-18.124-43.542-11.597-11.598-27.064-18.037-43.549-18.128z"/><path d="m55.492 217.991c-7.322 7.323-7.322 19.194 0 26.517 7.322 7.322 19.194 7.322 26.517 0 7.322-7.322 7.322-19.194 0-26.517-7.323-7.322-19.195-7.322-26.517 0z"/></g></svg>