<svg id="Capa_1" enable-background="new 0 0 512.092 512.092" height="20" viewBox="0 0 512.092 512.092" width="20" fill="#003300" xmlns="http://www.w3.org/2000/svg"><g><path d="m211 326.903 88.562-29.521 212.53-212.529-84.853-84.853-212.53 212.529-29.521 88.562h-185.188v211h512v-121h-301zm216.239-284.476 42.426 42.426-21.213 21.213-42.427-42.426zm-42.427 42.426 42.426 42.426-135.779 135.78-42.426-42.427zm-150.437 163.548 29.316 29.316-43.974 14.658zm-204.375 82.691h151v60h-151zm61 151h-61v-61h61zm330-61h61v61h-61zm-150 0h120v61h-120zm-30 0v61h-120v-61z"/></g></svg>